<?xml version="1.0" encoding="utf-8"?>
<!-- Generator: Adobe Illustrator 26.0.0, SVG Export Plug-In . SVG Version: 6.00 Build 0)  -->
<svg version="1.1" id="레이어_1" xmlns="http://www.w3.org/2000/svg" xmlns:xlink="http://www.w3.org/1999/xlink" x="0px"
	 y="0px" viewBox="0 0 249.4 62.4" style="enable-background:new 0 0 249.4 62.4;" xml:space="preserve">
<style type="text/css">
	.st0{fill-rule:evenodd;clip-rule:evenodd;fill:url(#SVGID_1_);}
	.st1{fill-rule:evenodd;clip-rule:evenodd;fill:url(#SVGID_00000129899251879060660250000004512250545645829002_);}
	.st2{fill:#002F46;}
	.st3{fill:#005592;}
	.st4{fill:#191A1E;}
	.st5{fill:#006296;}
	.st6{font-family:'NanumSquareOTFB-KSCpc-EUC-H';}
	.st7{font-size:7.8081px;}
</style>
<g>
	<g>
		<radialGradient id="SVGID_1_" cx="66.5981" cy="56.318" r="91.8929" gradientUnits="userSpaceOnUse">
			<stop  offset="0.2688" style="stop-color:#FFFFFF;stop-opacity:0"/>
			<stop  offset="0.3148" style="stop-color:#DFF1FC;stop-opacity:0.1782"/>
			<stop  offset="0.3861" style="stop-color:#A9DCF7;stop-opacity:0.4546"/>
			<stop  offset="0.4478" style="stop-color:#77CBF3;stop-opacity:0.6936"/>
			<stop  offset="0.4968" style="stop-color:#4EC1F0;stop-opacity:0.8833"/>
			<stop  offset="0.5269" style="stop-color:#39BDEF"/>
			<stop  offset="0.564" style="stop-color:#26A9DE"/>
			<stop  offset="0.6383" style="stop-color:#0086BF"/>
			<stop  offset="0.7026" style="stop-color:#006DA9"/>
			<stop  offset="0.7536" style="stop-color:#005F9C"/>
			<stop  offset="0.7849" style="stop-color:#005998"/>
			<stop  offset="1" style="stop-color:#005996"/>
		</radialGradient>
		<path class="st0" d="M63.7,9.4c-6.8-5.6-16.1-7.5-24.9-6C30.2,4.5,22.2,9.5,18.3,17c-3.8,7.3-3.5,16.2,0.1,22.9
			c2.9,5.5,7.9,9.6,13.2,11.6c0,0,0,0,0,0c-5.1-5.5-7.7-12.8-7.8-19.7c-0.1-7.2,2.8-15,8.8-20.1C35.7,9,39.8,7,44.2,6.2
			c4.6-0.8,9.6-0.3,14.2,1.5c5,2,9.4,5.9,12.4,10.6C69,15.1,66.5,11.8,63.7,9.4z"/>
		
			<radialGradient id="SVGID_00000095331996259731046710000004346543361690587778_" cx="64.0413" cy="35.2429" r="76.9198" gradientUnits="userSpaceOnUse">
			<stop  offset="0.2688" style="stop-color:#FFFFFF;stop-opacity:0"/>
			<stop  offset="0.3148" style="stop-color:#DFF1FC;stop-opacity:0.1782"/>
			<stop  offset="0.3861" style="stop-color:#A9DCF7;stop-opacity:0.4546"/>
			<stop  offset="0.4478" style="stop-color:#77CBF3;stop-opacity:0.6936"/>
			<stop  offset="0.4968" style="stop-color:#4EC1F0;stop-opacity:0.8833"/>
			<stop  offset="0.5269" style="stop-color:#39BDEF"/>
			<stop  offset="0.564" style="stop-color:#26A9DE"/>
			<stop  offset="0.6383" style="stop-color:#0086BF"/>
			<stop  offset="0.7026" style="stop-color:#006DA9"/>
			<stop  offset="0.7536" style="stop-color:#005F9C"/>
			<stop  offset="0.7849" style="stop-color:#005998"/>
			<stop  offset="1" style="stop-color:#005996"/>
		</radialGradient>
		<path style="fill-rule:evenodd;clip-rule:evenodd;fill:url(#SVGID_00000095331996259731046710000004346543361690587778_);" d="
			M74.3,31.5c0,0,0.1,0,0.1,0c0.2-7.4-2.5-14.9-7.4-20.6c-4.9-5.7-12-9.4-19.4-10.2c-7.4-0.8-15,1.2-20.8,5.5
			c-5.8,4.2-9.8,10.7-11.2,17.5c-1.3,6.7,0,13.9,3.5,19.5c3.4,5.5,8.9,9.7,15,11.4c5.9,1.7,12.4,1.2,17.8-1.4
			c5.3-2.5,9.5-6.9,11.8-12c3.9-2.4,8-5.7,9.8-10.3c0.6,12.2-7.4,24.7-19,29.2c-11.5,4.5-25.9,0.6-33.5-9
			c-6.3-7.3-8.7-17.9-6.2-27.3c2.5-9.3,9.8-17.4,18.8-20.7c9.1-3.3,19.9-1.9,27.8,3.6C69.3,12.3,74.3,21.9,74.3,31.5z"/>
	</g>
	<path class="st2" d="M45.5,22.6L45.5,22.6l-4.6,2.2l-0.8-3.6l6.1-2.9h3.3v24.2h-3.9V22.6z"/>
	<g>
		<rect x="80.4" y="28.7" class="st3" width="8.9" height="2.2"/>
		<rect x="80.4" y="40.4" class="st3" width="8.9" height="2.2"/>
		<rect x="80.4" y="34.3" class="st3" width="8.9" height="2.2"/>
		<path class="st3" d="M5.6,30.9H1.1v-2.2h11.6v2.2H8.2v11.7H5.6V30.9z"/>
		<path class="st3" d="M17,28.7v5.5h6.7v-5.5h2.7v13.9h-2.7v-6.1H17v6.1h-2.7V28.7H17z"/>
		<path class="st3" d="M38,36.5h-5.9v4h6.6v2.1h-9.2V28.7h8.9v2.1h-6.2v3.5H38V36.5z"/>
		<path class="st3" d="M64.7,36.5h-5.9v4h6.6v2.1h-9.2V28.7h8.9v2.1h-6.2v3.5h5.9V36.5z"/>
		<path class="st3" d="M71.4,42.6v-5.8l-4.8-8h3.1l1.8,3.6c0.5,1.1,0.9,1.7,1.3,2.7h0c0.4-0.8,0.8-1.6,1.3-2.6l1.9-3.6h3.1l-5.1,8
			v5.9H71.4z"/>
	</g>
</g>
<g>
	<path class="st4" d="M116.5,45.7h-8.8V24.8h10.9v2.4h-8.2v16.1h6.2c1.7,0,3.3-0.1,4.4-0.5V45C119.9,45.5,118.3,45.7,116.5,45.7z
		 M116.6,35.9v-2.4h6.6v-9.1h2.7v22.8h-2.7V35.9H116.6z"/>
	<path class="st4" d="M138.1,36.4v3.9h-2.7v-3.9h-4.8v-2.3H141c1.8,0,3.4-0.1,4.7-0.5v2.2c-1.2,0.4-2.8,0.5-4.6,0.5H138.1z
		 M131.5,28.6c0-1.3,0.6-2.3,1.4-2.9c1.2-0.9,3-1.3,4.9-1.3s3.7,0.4,4.8,1.3c0.9,0.7,1.4,1.7,1.4,2.9c0,1.3-0.5,2.3-1.4,3
		c-1.2,0.9-2.9,1.3-4.8,1.3s-3.7-0.4-4.9-1.3C132,30.8,131.5,29.8,131.5,28.6z M150.3,47.5h-17.4V41h2.7v4.1h14.7V47.5z M134.1,28.6
		c0,0.6,0.3,1.1,0.7,1.4c0.7,0.5,1.7,0.8,3,0.8c1.2,0,2.3-0.3,2.9-0.8c0.4-0.3,0.7-0.8,0.7-1.4c0-0.6-0.3-1.1-0.7-1.4
		c-0.6-0.5-1.7-0.7-2.9-0.7c-1.3,0-2.3,0.3-3,0.7C134.4,27.5,134.1,28,134.1,28.6z M149.9,41.8h-2.7V40h-5v-2.2h5V24.4h2.7V41.8z"/>
	<path class="st4" d="M161.1,40c-1,2.6-3.7,4.7-6.6,5.7v-2.5c2.7-1.3,5.2-3.6,5.2-9.9v-8.5h2.7v8.5c0,6.4,2.5,8.6,5.2,9.9v2.5
		C164.8,44.7,162.1,42.6,161.1,40z M173.7,24.4v22.8h-2.7V35h-5.3v-2.4h5.3v-8.2H173.7z"/>
	<path class="st4" d="M178.4,35.5v-2.3H199v2.3H190v2h7.5v6.1h-14.8v1.7H198v2.2h-18v-6.1h14.8v-1.7h-14.8v-2.2h7.4v-2H178.4z
		 M179.5,28.1c0-1,0.4-1.7,1.1-2.2c1.4-1,4.1-1.4,8.1-1.4c4,0,6.7,0.4,8.1,1.4c0.7,0.6,1.1,1.3,1.1,2.2c0,0.9-0.4,1.7-1.1,2.2
		c-1.4,1-4.1,1.4-8.1,1.4c-4,0-6.7-0.4-8.1-1.4C179.9,29.7,179.5,29,179.5,28.1z M182.2,28.1c0,0.3,0.2,0.5,0.5,0.8
		c0.8,0.5,2.8,0.7,6,0.7c3.2,0,5.2-0.2,6-0.7c0.3-0.2,0.5-0.5,0.5-0.8c0-0.3-0.2-0.6-0.5-0.8c-0.8-0.5-2.8-0.7-6-0.7
		c-3.2,0-5.2,0.2-6,0.7C182.4,27.5,182.2,27.7,182.2,28.1z"/>
	<path class="st4" d="M202.5,30.9c0-2.3,0.7-4.1,1.9-5.2c1-0.9,2.4-1.4,4-1.4c1.7,0,3.1,0.5,4.1,1.4c1.2,1.1,1.9,2.9,1.9,5.2
		c0,2.3-0.7,4.1-1.9,5.2c-1,0.9-2.4,1.4-4.1,1.4c-1.7,0-3-0.5-4-1.4C203.2,35,202.5,33.2,202.5,30.9z M206.8,39.6V45h14.5v2.4h-17.2
		v-7.7H206.8z M205.2,30.9c0,1.5,0.4,2.7,1.1,3.4c0.6,0.6,1.3,0.9,2.2,0.9c1,0,1.7-0.3,2.3-0.9c0.7-0.7,1.1-1.9,1.1-3.4
		c0-1.5-0.4-2.7-1.1-3.4c-0.6-0.6-1.3-0.9-2.3-0.9c-0.9,0-1.7,0.3-2.2,0.9C205.5,28.2,205.2,29.4,205.2,30.9z M220.9,24.4v6.2h3.3
		v2.4h-3.3v7.3h-2.7v-16H220.9z"/>
	<path class="st4" d="M229.7,43.6V33.2h2.7v10.4h5.1c2,0,3.6-0.4,4.5-1.2v-18h2.7v9.3h3.6v2.4h-3.6v11.1H242v-2.6
		c-0.9,0.9-2.8,1.3-5.1,1.3h-10.5v-2.4H229.7z M235.9,34v-6.7h-8.8v-2.4h11.5v8.7c0,2.1-0.2,4.5-0.6,6.1h-2.7
		C235.7,38.1,235.9,35.9,235.9,34z"/>
</g>
<text transform="matrix(1 0 0 1 107.9065 18.1902)" class="st5 st6 st7">THE ONE SEOUL EYE CLINIC</text>
</svg>
